HIERARCHY
ROOT Hips
{
	OFFSET 0.000000 89.005402 0.000000
	CHANNELS 6 Xposition Yposition Zposition Xrotation Yrotation Zrotation
	JOINT Spine
	{
		OFFSET 0.116900 10.681000 0.373400
		CHANNELS 3 Xrotation Yrotation Zrotation
		JOINT Spine1
		{
			OFFSET 0.000000 13.840401 0.053500
			CHANNELS 3 Xrotation Yrotation Zrotation
			JOINT Spine2
			{
				OFFSET 0.000000 14.712700 -0.366200
				CHANNELS 3 Xrotation Yrotation Zrotation
				JOINT Neck
				{
					OFFSET 0.000000 35.415497 -3.314200
					CHANNELS 3 Xrotation Yrotation Zrotation
					JOINT Head
					{
						OFFSET 0.000000 16.899200 1.218300
						CHANNELS 3 Xrotation Yrotation Zrotation
						JOINT HeadTop_End
						{
							OFFSET 0.000000 22.206207 2.192500
							CHANNELS 3 Xrotation Yrotation Zrotation
							End Site
							{
								OFFSET 0.000000 22.314178 0.000000
							}
						}
					}
				}
				JOINT LeftShoulder
				{
					OFFSET 12.896400 26.716293 -4.548400
					CHANNELS 3 Xrotation Yrotation Zrotation
					JOINT LeftArm
					{
						OFFSET 19.027000 -4.857010 -1.718400
						CHANNELS 3 Xrotation Yrotation Zrotation
						JOINT LeftForeArm
						{
							OFFSET 24.179897 0.000000 0.000000
							CHANNELS 3 Xrotation Yrotation Zrotation
							JOINT LeftHand
							{
								OFFSET 27.156403 0.000000 0.000000
								CHANNELS 3 Xrotation Yrotation Zrotation
								JOINT LeftHandIndex1
								{
									OFFSET 16.441200 0.000000 0.000000
									CHANNELS 3 Xrotation Yrotation Zrotation
									JOINT LeftHandIndex2
									{
										OFFSET 4.821899 0.000000 0.000000
										CHANNELS 3 Xrotation Yrotation Zrotation
										JOINT LeftHandIndex3
										{
											OFFSET 6.386497 0.000000 0.000000
											CHANNELS 3 Xrotation Yrotation Zrotation
											JOINT LeftHandIndex4
											{
												OFFSET 5.188988 0.000000 0.000000
												CHANNELS 3 Xrotation Yrotation Zrotation
												End Site
												{
													OFFSET -0.178703 5.185913 0.000177
												}
											}
										}
									}
								}
								JOINT LeftHandThumb1
								{
									OFFSET 6.534897 -5.032593 5.900300
									CHANNELS 3 Xrotation Yrotation Zrotation
									JOINT LeftHandThumb2
									{
										OFFSET 3.818176 -2.204422 2.204423
										CHANNELS 3 Xrotation Yrotation Zrotation
										JOINT LeftHandThumb3
										{
											OFFSET 3.252098 -1.877594 1.877601
											CHANNELS 3 Xrotation Yrotation Zrotation
											JOINT LeftHandThumb4
											{
												OFFSET 5.251778 -3.032120 3.032117
												CHANNELS 3 Xrotation Yrotation Zrotation
												End Site
												{
													OFFSET 0.000023 6.780014 0.000000
												}
											}
										}
									}
								}
							}
						}
					}
				}
				JOINT RightShoulder
				{
					OFFSET -12.896300 26.716293 -4.548400
					CHANNELS 3 Xrotation Yrotation Zrotation
					JOINT RightArm
					{
						OFFSET -19.027000 -4.857010 -1.718400
						CHANNELS 3 Xrotation Yrotation Zrotation
						JOINT RightForeArm
						{
							OFFSET -24.179897 0.000000 0.000000
							CHANNELS 3 Xrotation Yrotation Zrotation
							JOINT RightHand
							{
								OFFSET -27.156403 0.000000 0.000000
								CHANNELS 3 Xrotation Yrotation Zrotation
								JOINT RightHandThumb1
								{
									OFFSET -6.591202 -4.852203 5.988100
									CHANNELS 3 Xrotation Yrotation Zrotation
									JOINT RightHandThumb2
									{
										OFFSET -3.818176 -2.204422 2.204423
										CHANNELS 3 Xrotation Yrotation Zrotation
										JOINT RightHandThumb3
										{
											OFFSET -3.252098 -1.877594 1.877601
											CHANNELS 3 Xrotation Yrotation Zrotation
											JOINT RightHandThumb4
											{
												OFFSET -5.251778 -3.032120 3.032117
												CHANNELS 3 Xrotation Yrotation Zrotation
												End Site
												{
													OFFSET -0.000023 6.780014 0.000000
												}
											}
										}
									}
								}
								JOINT RightHandIndex1
								{
									OFFSET -16.029404 0.000000 0.000000
									CHANNELS 3 Xrotation Yrotation Zrotation
									JOINT RightHandIndex2
									{
										OFFSET -5.213303 0.000000 0.000000
										CHANNELS 3 Xrotation Yrotation Zrotation
										JOINT RightHandIndex3
										{
											OFFSET -6.386528 0.000000 0.000000
											CHANNELS 3 Xrotation Yrotation Zrotation
											JOINT RightHandIndex4
											{
												OFFSET -5.189026 0.000000 0.000000
												CHANNELS 3 Xrotation Yrotation Zrotation
												End Site
												{
													OFFSET 0.236702 5.183624 0.001972
												}
											}
										}
									}
								}
							}
						}
					}
				}
			}
		}
	}
	JOINT LeftUpLeg
	{
		OFFSET 14.073000 -7.904099 -1.463000
		CHANNELS 3 Xrotation Yrotation Zrotation
		JOINT LeftLeg
		{
			OFFSET -0.109806 -34.073280 4.093200
			CHANNELS 3 Xrotation Yrotation Zrotation
			JOINT LeftFoot
			{
				OFFSET 0.109806 -29.899420 -6.319000
				CHANNELS 3 Xrotation Yrotation Zrotation
				JOINT LeftToeBase
				{
					OFFSET 1.551100 -14.988700 20.535801
					CHANNELS 3 Xrotation Yrotation Zrotation
					JOINT LeftToe_End
					{
						OFFSET 0.221200 0.570800 13.248301
						CHANNELS 3 Xrotation Yrotation Zrotation
						End Site
						{
							OFFSET 0.000000 13.262435 0.000000
						}
					}
				}
			}
		}
	}
	JOINT RightUpLeg
	{
		OFFSET -13.839300 -7.904099 -1.463000
		CHANNELS 3 Xrotation Yrotation Zrotation
		JOINT RightLeg
		{
			OFFSET 0.109694 -34.073219 4.093300
			CHANNELS 3 Xrotation Yrotation Zrotation
			JOINT RightFoot
			{
				OFFSET -0.109694 -29.899384 -6.319200
				CHANNELS 3 Xrotation Yrotation Zrotation
				JOINT RightToeBase
				{
					OFFSET -1.551100 -14.988700 20.535801
					CHANNELS 3 Xrotation Yrotation Zrotation
					JOINT RightToe_End
					{
						OFFSET -0.221200 0.570900 13.248299
						CHANNELS 3 Xrotation Yrotation Zrotation
						End Site
						{
							OFFSET 0.000000 13.262440 0.000000
						}
					}
				}
			}
		}
	}
}
MOTION
Frames: 7
Frame Time: 0.033333
8.997349 78.845329 5.513930 2.346084 7.925810 -4.019826 1.660916 3.082732 -3.967469 3.708226 5.402675 -5.665116 3.746039 5.361735 -5.676251 -2.621806 -3.166564 -7.307149 7.545531 -27.424217 12.790191 0.000000 -0.000000 0.000000 1.140059 -3.306870 -5.026412 -13.445351 -23.111210 -41.711344 0.000013 -118.134296 0.000017 -1.877766 0.721806 17.722937 2.405216 5.348028 -59.315863 4.918300 6.596580 -73.388217 2.257610 5.101943 -47.716221 0.000003 0.000000 0.000000 -1.750034 3.944007 -4.185648 3.899206 7.747453 0.782149 4.052776 14.339028 -0.128504 -0.000001 -0.000000 -0.000001 0.393974 1.146526 -12.734377 -52.061618 29.686898 45.288683 -0.001357 88.814043 0.001370 29.378980 -13.718254 -22.068956 -7.003841 -10.026266 0.841505 4.637216 -8.634118 -0.225409 -0.842924 -1.050906 -2.111250 -0.000003 -0.000003 -0.000001 -2.996809 -1.112258 52.631908 1.439590 -4.241259 37.482920 1.291934 -4.041955 35.438686 0.000000 -0.000002 -0.000001 -39.469211 -4.516655 5.437129 41.818035 -9.030840 10.651367 -8.634669 -14.835412 -13.699548 -1.140032 0.000010 0.000003 -0.000000 -0.000002 -0.000000 5.803736 -13.970990 -4.483755 46.375017 -11.484451 -5.071115 -15.255714 -13.443774 22.884107 -21.863150 -0.892478 8.310488 -0.000000 -0.000003 -0.000000 
9.375578 77.629982 5.762619 2.170727 6.263868 -4.459763 2.540234 3.204569 -4.449656 5.166466 5.649386 -6.381909 5.218881 5.604007 -6.375104 -2.207589 -3.336979 -7.177118 4.190510 -28.284242 13.893237 -0.000000 0.000000 0.000000 1.416505 -5.265452 -5.957927 -5.533025 -11.915899 -42.983128 -0.000015 -125.075189 -0.000014 -4.302327 -4.891049 20.432514 3.619194 6.062236 -62.636141 5.618949 6.764993 -79.405293 2.565300 5.364541 -51.088616 0.000000 0.000003 0.000001 -1.771633 3.940985 -4.511354 3.906811 7.785976 0.775402 4.799535 16.029155 -0.540575 0.000001 0.000000 -0.000000 0.929865 3.181261 -8.486725 -44.959508 20.827639 42.589125 0.000002 113.078925 -0.000006 33.809785 -13.503615 -19.711036 -7.162041 -9.813270 0.384688 4.637219 -8.634120 -0.225404 -0.831336 -1.082790 -2.111660 0.000003 -0.000001 0.000002 -4.482653 -0.001174 52.940233 1.235164 -3.961158 34.625118 1.241245 -3.969937 34.713087 -0.000000 -0.000002 -0.000000 -40.962349 -5.818970 5.736585 47.198899 -9.179053 10.473766 -11.573585 -11.777262 -13.190784 -1.188506 0.000000 0.000003 0.000000 0.000000 0.000000 2.800826 -12.962204 -7.296287 51.399475 -11.247107 -5.652077 -16.441804 -7.542451 23.265813 -23.884849 -1.178318 9.548819 0.000000 0.000002 -0.000000 
9.892842 76.312607 5.899217 1.795654 2.518415 -4.836878 3.343928 3.446537 -4.995937 6.466018 6.147826 -7.145654 6.538193 6.099434 -7.116843 -2.035275 -3.593052 -6.596296 0.513574 -29.033724 14.793216 0.000000 0.000000 -0.000001 1.648823 -7.046875 -6.785551 2.165018 0.999665 -47.266531 0.000000 -123.014084 0.000003 -5.569282 -9.259234 19.653605 4.177759 6.332434 -65.424688 6.098199 6.836710 -83.450773 2.901485 5.618155 -54.600846 0.000001 -0.000000 0.000000 -1.793130 3.922485 -4.608922 3.944398 7.975666 0.742077 5.272536 17.059625 -0.800790 -0.000000 0.000000 0.000001 0.907581 3.022696 -4.938294 -41.108231 15.602889 44.075340 0.000002 128.048125 -0.000003 34.731461 -11.842279 -18.339126 -7.060222 -9.953216 0.762081 4.637216 -8.634119 -0.225405 -0.907465 -0.873362 -2.108959 0.000004 0.000001 0.000001 -5.240533 0.531868 53.230335 1.002461 -3.601705 31.097749 1.177815 -3.876977 33.785999 -0.000002 0.000001 0.000000 -41.821259 -6.239476 6.720047 52.960095 -9.311367 10.354574 -15.125896 -7.743435 -12.517547 -1.089148 -0.000003 0.000001 0.000000 0.000000 0.000000 -0.156177 -12.654913 -10.146275 55.679620 -8.147461 -6.154706 -18.119712 -6.325610 22.813119 -25.475991 -0.921957 8.390350 -0.000000 -0.000001 0.000000 
10.547556 75.042358 5.913837 1.161789 -2.749606 -5.222352 3.970944 3.533558 -5.508680 7.387173 6.367318 -7.798100 7.479740 6.318575 -7.744264 -2.067834 -3.722702 -5.840702 -2.866993 -28.897038 14.709465 -0.000000 -0.000001 0.000000 1.693217 -7.427581 -6.545646 7.647860 12.728925 -54.527289 -0.000028 -109.277747 -0.000027 -7.307905 -13.709514 13.137123 4.383370 6.414576 -67.978209 6.314006 6.857874 -85.260801 3.135521 5.776554 -56.957972 0.000000 0.000000 -0.000000 -1.862060 3.825865 -4.403334 3.953844 8.022974 0.733737 5.607602 17.771720 -0.984803 -0.000000 0.000000 -0.000001 0.750436 2.040995 -2.937161 -39.947639 14.933039 46.640008 0.000018 133.100279 -0.000025 33.801445 -10.442988 -19.308118 -6.647351 -10.500366 2.501938 4.637218 -8.634116 -0.225403 -1.046605 -0.490046 -2.103838 -0.000001 0.000000 -0.000001 -5.282532 0.512289 53.465000 0.784551 -3.213532 27.433035 1.109374 -3.772944 32.760220 -0.000001 -0.000000 0.000000 -41.781620 -5.918668 8.214007 58.422433 -9.496983 10.244573 -18.943277 -3.137984 -11.667946 -0.910920 -0.000007 -0.000001 0.000000 0.000000 0.000000 -2.907186 -12.535287 -12.777640 59.029090 -5.362966 -6.780579 -20.589537 -6.646524 21.784473 -26.203993 -0.382569 5.328839 -0.000000 0.000000 -0.000000 
11.289899 74.071579 5.847802 0.047160 -9.393546 -5.901635 4.410880 3.401437 -5.790193 7.904493 6.205478 -8.150485 8.007224 6.165740 -8.074941 -2.294409 -3.539724 -5.258974 -5.554647 -27.324708 13.910349 0.000000 -0.000002 -0.000001 1.621955 -7.024283 -5.818941 10.107264 21.079873 -60.387062 -0.001199 -87.476835 -0.001174 -11.863584 -14.583058 5.251020 4.457820 6.442410 -69.620685 6.355627 6.861180 -85.609174 3.210531 5.824396 -57.700099 -0.000001 0.000000 -0.000000 -1.936033 3.719005 -4.158424 3.941884 7.962899 0.744315 5.943956 18.472323 -1.169403 0.000002 0.000003 -0.000000 0.661229 1.529761 -3.031657 -41.662870 17.253167 49.213214 0.000026 131.390942 -0.000020 34.542818 -10.580814 -19.708284 -6.152305 -11.111716 4.932919 4.637217 -8.634116 -0.225408 -1.161065 -0.174174 -2.099410 0.000000 0.000001 0.000005 -5.008891 0.249648 53.698855 0.621158 -2.877465 24.358500 1.051847 -3.682201 31.875383 0.000001 -0.000001 -0.000001 -40.300800 -4.783525 10.397930 62.922127 -9.623630 10.152485 -22.857498 1.718064 -10.760207 -0.777821 -0.000010 -0.000002 -0.000000 0.000002 0.000000 -5.308306 -11.827601 -14.563930 61.002448 -3.149548 -8.014340 -23.324857 -6.739615 20.182150 -25.718927 -0.052390 1.940496 0.000000 -0.000002 -0.000001 
12.012298 73.717201 5.841050 -1.600182 -17.193611 -7.212125 4.622670 3.151712 -5.836185 8.019103 5.839950 -8.257727 8.120128 5.817147 -8.170125 -2.682957 -3.075807 -4.895265 -7.468995 -24.664691 13.565085 -0.000000 -0.000001 0.000000 1.723889 -7.776368 -5.967440 11.697233 25.042798 -61.423727 0.000025 -66.020171 0.000030 -18.522220 -11.028352 2.710217 4.421254 6.429179 -69.824812 6.310422 6.857600 -85.230652 3.180946 5.805684 -57.407965 -0.000002 0.000002 0.000003 -1.980036 3.661854 -4.103566 3.933806 7.922322 0.751440 6.309019 19.217374 -1.369738 -0.000001 -0.000000 0.000000 0.631351 1.495161 -4.453807 -45.142428 20.945120 51.690496 0.000022 126.902114 -0.000028 37.482862 -12.097619 -18.334410 -5.902124 -11.416123 6.879467 4.637216 -8.634119 -0.225407 -1.152661 -0.197384 -2.099743 -0.000002 -0.000001 0.000003 -4.723533 -0.027153 53.979210 0.520317 -2.643691 22.264822 1.012755 -3.618717 31.261414 0.000001 -0.000001 -0.000001 -37.064486 -2.689559 13.781256 65.014959 -6.551463 10.028190 -26.420177 3.559352 -11.760862 -0.740075 -0.000010 0.000002 0.000000 0.000000 0.000000 -7.437332 -10.377548 -15.247593 61.249906 0.313118 -9.979093 -24.862119 -6.337241 18.179037 -24.840223 -0.000009 0.000005 -0.000000 -0.000000 0.000000 
12.569024 74.179161 6.011327 -3.581097 -25.631868 -9.169295 4.485493 2.897533 -5.836899 7.628192 5.424473 -8.293463 7.725408 5.412469 -8.207337 -3.217520 -2.494532 -4.577369 -8.597074 -21.571510 14.030650 -0.000000 -0.000001 -0.000001 1.963233 -9.564782 -6.796825 14.978219 26.239553 -59.713619 -0.000009 -52.549454 -0.000004 -24.389298 -9.805851 5.240978 4.384700 6.414962 -69.393568 6.252868 6.852586 -84.748482 3.121269 5.767285 -56.816078 -0.000000 0.000002 -0.000000 -1.998910 3.646496 -4.195541 3.936198 7.934341 0.749353 6.621206 19.842287 -1.541193 -0.000000 0.000000 0.000000 0.559871 1.220194 -5.664388 -48.757633 25.392128 53.943574 0.000006 122.265290 -0.000002 40.199290 -13.426196 -17.269618 -5.941247 -11.403298 7.823982 4.637220 -8.634112 -0.225405 -1.001849 -0.613384 -2.105544 -0.000001 0.000001 0.000003 -4.503124 -0.260531 54.312151 0.468538 -2.513681 21.114135 0.987301 -3.576484 30.855479 0.000004 -0.000002 -0.000001 -32.384406 0.751061 17.694329 64.452622 -2.793526 9.919503 -28.984212 4.576338 -13.708656 -0.737779 -0.000005 0.000003 -0.000000 -0.000000 0.000000 -9.810369 -8.479704 -15.926826 59.946876 5.476172 -11.043494 -23.708801 -4.487676 16.250203 -24.178873 0.000006 -0.000002 -0.000000 -0.000000 -0.000001 
